<?xml version="1.0" standalone="no"?>
<!DOCTYPE svg PUBLIC "-//W3C//DTD SVG 20010904//EN"
  "http://www.w3.org/TR/2001/REC-SVG-20010904/DTD/svg10.dtd">
<svg version="1.0" xmlns="http://www.w3.org/2000/svg"
  width="259.000000pt" height="259.000000pt" viewBox="0 0 259.000000 259.000000"
  preserveAspectRatio="xMidYMid meet">
  <metadata>
    Created by potrace 1.11, written by Peter Selinger 2001-2013
  </metadata>
  <g transform="translate(0.000000,259.000000) scale(0.100000,-0.100000)"
    fill="rgb(137,33,255)" stroke="none">
    <path d="M765 2225 c-280 -162 -518 -304 -527 -316 -17 -20 -18 -64 -18 -610
      l0 -588 22 -24 c23 -25 1004 -595 1040 -605 22 -5 1042 581 1063 611 22 32 22
      1182 0 1214 -16 23 -1032 613 -1056 613 -8 0 -243 -133 -524 -295z m238 -595
      c-6 -187 -5 -200 11 -200 52 0 426 124 536 178 41 20 78 38 81 40 3 1 15 -21
      27 -50 11 -29 23 -60 27 -69 5 -13 -19 -26 -123 -67 -114 -45 -360 -125 -507
      -164 l-50 -14 -3 -109 c-5 -156 4 -212 34 -231 43 -29 182 -38 379 -25 99 6
      208 17 243 25 l62 13 0 -77 0 -78 -31 -6 c-17 -3 -126 -11 -242 -17 -233 -12
      -403 -2 -476 27 -50 20 -88 63 -95 107 -3 18 -7 231 -8 475 l-3 442 72 0 73 0
      -7 -200z"/>
  </g>
</svg>
